<?xml version="1.0" encoding="UTF-8"?>
<svg version="1.1" xmlns="http://www.w3.org/2000/svg" width="613" height="100">
<path d="M0 0 C132.66 0 265.32 0 402 0 C402 33 402 66 402 100 C281.55 100 161.1 100 37 100 C36.67 83.5 36.34 67 36 50 C33.63925842 38.19629211 31.06558327 30.77170179 21.296875 23.78125 C14.84196134 20.07669085 7.21644212 19.28865038 0 18 C0 12.06 0 6.12 0 0 Z " fill="#D98119" transform="translate(211,0)"/>
<path d="M0 0 C13.17541743 10.39351111 20.08828887 22.70715262 22.125 39.25 C22.3606587 43.43687782 22.36055091 47.60446439 22.3203125 51.796875 C22.3174826 52.93408997 22.31465271 54.07130493 22.31173706 55.24298096 C22.30065858 58.828767 22.27557773 62.41429112 22.25 66 C22.23995424 68.45051719 22.2308312 70.90103835 22.22265625 73.3515625 C22.20075979 79.31780725 22.16631676 85.28385942 22.125 91.25 C15.855 91.25 9.585 91.25 3.125 91.25 C3.1156543 89.67178467 3.10630859 88.09356934 3.09667969 86.4675293 C3.05659391 80.57239289 2.99078301 74.67776817 2.91748047 68.78295898 C2.88937846 66.2390809 2.86811078 63.69511724 2.85400391 61.15112305 C2.83242559 57.47921273 2.78569656 53.80831972 2.734375 50.13671875 C2.73314636 49.01230881 2.73191772 47.88789886 2.73065186 46.72941589 C2.5353829 36.03155957 -0.15468157 26.02331832 -7.875 18.25 C-16.28416 11.77379033 -25.61362892 9.38255604 -36.21875 10.49609375 C-45.31074296 12.5345763 -53.07061565 17.1332714 -58.0625 25 C-63.02620183 33.12003993 -63.19344647 41.37050171 -63.2890625 50.625 C-63.30842865 51.7900708 -63.3277948 52.9551416 -63.3477478 54.15551758 C-63.40722524 57.85360538 -63.45380164 61.55172485 -63.5 65.25 C-63.53820905 67.76694018 -63.57726246 70.2838677 -63.6171875 72.80078125 C-63.71290067 78.95041719 -63.79704906 85.1001143 -63.875 91.25 C-70.145 91.25 -76.415 91.25 -82.875 91.25 C-82.94978273 84.10077132 -83.0038989 76.95177599 -83.03979492 69.80224609 C-83.05477713 67.37577339 -83.07516992 64.94932728 -83.10131836 62.52294922 C-83.33319136 40.43590883 -82.78132947 21.53932011 -66.57421875 4.7265625 C-48.02792474 -12.28986355 -20.73669522 -14.1644093 0 0 Z " fill="#DC8319" transform="translate(171.875,8.75)"/>
<path d="M0 0 C0 5.94 0 11.88 0 18 C-3.403125 18.556875 -3.403125 18.556875 -6.875 19.125 C-15.95386479 20.83079169 -23.95450363 24.35941783 -29.65301514 31.95303345 C-34.91265999 39.94593477 -35.59957102 47.86400621 -35.609375 57.2265625 C-35.62591125 58.45539154 -35.64244751 59.68422058 -35.65948486 60.95028687 C-35.70773491 64.84190993 -35.72928582 68.73314284 -35.75 72.625 C-35.77817873 75.27736314 -35.80810879 77.92970828 -35.83984375 80.58203125 C-35.91348843 87.05465536 -35.96320394 93.52706578 -36 100 C-42.27 100 -48.54 100 -55 100 C-55.09102353 92.79268672 -55.16412682 85.58569702 -55.20724869 78.37792683 C-55.22796447 75.02956232 -55.25820278 71.68193095 -55.30175781 68.33374023 C-55.35074902 64.46847839 -55.37307739 60.60379895 -55.390625 56.73828125 C-55.41127014 55.55857254 -55.43191528 54.37886383 -55.45318604 53.16340637 C-55.45733037 37.52288634 -49.94355921 25.18763096 -39.4375 13.75 C-28.33394585 3.08787155 -15.05811026 -0.3104765 0 0 Z " fill="#DB8319" transform="translate(72,0)"/>
<path d="M0 0 C0.8971875 0.7425 0.8971875 0.7425 1.8125 1.5 C1.8125 0.51 1.8125 -0.48 1.8125 -1.5 C4.4525 -1.5 7.0925 -1.5 9.8125 -1.5 C9.8125 9.39 9.8125 20.28 9.8125 31.5 C7.1725 31.5 4.5325 31.5 1.8125 31.5 C1.8125 30.51 1.8125 29.52 1.8125 28.5 C1.02875 28.995 0.245 29.49 -0.5625 30 C-5.24836014 31.93897661 -9.18008281 32.2409349 -14.1875 31.5 C-18.13972679 29.48795727 -20.91512595 27.32715629 -23.1875 23.5 C-24.78319405 18.20365381 -25.35323374 12.37805632 -23.24609375 7.17578125 C-18.07487472 -1.59421716 -9.50024341 -4.47070278 0 0 Z " fill="#0C0702" transform="translate(290.1875,42.5)"/>
<path d="M0 0 C5.28493805 1.76164602 7.84136626 4.57791276 11 9 C12.55827007 12.71587479 12 15.718736 12 20 C3.75 20 -4.5 20 -13 20 C-9.68553065 25.33704313 -9.68553065 25.33704313 -5.4375 25.4375 C-1.88442426 25.24449116 -1.88442426 25.24449116 1 23 C3.48046875 22.8046875 3.48046875 22.8046875 6.1875 22.875 C7.08855469 22.89304687 7.98960937 22.91109375 8.91796875 22.9296875 C9.60503906 22.95289062 10.29210937 22.97609375 11 23 C9.02440687 27.16005955 6.96659109 30.06352805 2.703125 32.09375 C-3.00243842 34.00659785 -8.88504262 33.93998106 -14.375 31.5 C-19.21443206 26.89101709 -22.26347293 22.72168887 -22.5625 15.875 C-22.30731712 11.25335442 -21.10644351 8.52623318 -18 5 C-12.02699628 -0.26193185 -7.81748614 -0.59793803 0 0 Z " fill="#0A0602" transform="translate(448,41)"/>
<path d="M0 0 C5.01791684 2.41935276 8.49958655 5.9991731 11 11 C11 13.97 11 16.94 11 20 C2.75 20 -5.5 20 -14 20 C-9.79525248 25.20847841 -9.79525248 25.20847841 -5.875 25.4375 C-2.80919458 25.17844932 -2.80919458 25.17844932 0 23 C2.48046875 22.8046875 2.48046875 22.8046875 5.1875 22.875 C6.08855469 22.89304687 6.98960937 22.91109375 7.91796875 22.9296875 C8.60503906 22.95289062 9.29210937 22.97609375 10 23 C8.64231796 27.88765533 6.32965579 29.52591098 2 32 C-3.12817123 33.70939041 -9.09390581 34.21261484 -14.171875 32.09375 C-18.16082211 29.43445193 -20.56513777 26.64220132 -22 22 C-22.6168329 16.39453101 -22.77522099 11.66970674 -20.375 6.5 C-14.14222121 -0.06081978 -8.86783276 -1.20592781 0 0 Z " fill="#090501" transform="translate(594,41)"/>
<path d="M0 0 C2.31 0 4.62 0 7 0 C7 3.96 7 7.92 7 12 C7.99 11.34 8.98 10.68 10 10 C14.52250916 9.40977423 18.69563971 9.47270541 22.9375 11.1875 C26.12167215 13.98571189 27.83465936 16.61030893 28.34057617 20.86254883 C28.32486572 21.88372803 28.30915527 22.90490723 28.29296875 23.95703125 C28.28330078 25.06884766 28.27363281 26.18066406 28.26367188 27.32617188 C28.23853516 28.47666016 28.21339844 29.62714844 28.1875 30.8125 C28.16719727 32.56723633 28.16719727 32.56723633 28.14648438 34.35742188 C28.11120278 37.238752 28.0619028 40.11913904 28 43 C25.36 43 22.72 43 20 43 C19.98541748 42.34926514 19.97083496 41.69853027 19.95581055 41.02807617 C19.88135451 38.08061694 19.78468734 35.13429358 19.6875 32.1875 C19.66494141 31.16333984 19.64238281 30.13917969 19.61914062 29.08398438 C19.5659668 27.60961914 19.5659668 27.60961914 19.51171875 26.10546875 C19.48553467 25.19949951 19.45935059 24.29353027 19.43237305 23.36010742 C18.92299438 20.57966495 18.29424517 19.62186966 16 18 C12.91666667 18 12.91666667 18 10 19 C7.91254955 22.13117567 7.72346004 23.06946224 7.5859375 26.66796875 C7.54726563 27.56064453 7.50859375 28.45332031 7.46875 29.37304688 C7.4378125 30.30181641 7.406875 31.23058594 7.375 32.1875 C7.31699219 33.59805664 7.31699219 33.59805664 7.2578125 35.03710938 C7.16356813 37.3578771 7.07795975 39.67863748 7 42 C4.69 42 2.38 42 0 42 C0 28.14 0 14.28 0 0 Z " fill="#060401" transform="translate(362,31)"/>
<path d="M0 0 C2.64 0 5.28 0 8 0 C8.01458252 0.57967529 8.02916504 1.15935059 8.04418945 1.7565918 C8.11898528 4.40087553 8.21553898 7.04394002 8.3125 9.6875 C8.33505859 10.59951172 8.35761719 11.51152344 8.38085938 12.45117188 C8.63153576 19.2258961 8.63153576 19.2258961 12 25 C14.5 25.75 14.5 25.75 17 25 C19.75365598 22.07788799 20.39079658 19.98187205 20.51171875 16.015625 C20.54716797 15.08105469 20.58261719 14.14648438 20.61914062 13.18359375 C20.64169922 12.21550781 20.66425781 11.24742188 20.6875 10.25 C20.72166016 9.26644531 20.75582031 8.28289063 20.79101562 7.26953125 C20.87335273 4.84646801 20.94254838 2.42376002 21 0 C23.64 0 26.28 0 29 0 C29 10.89 29 21.78 29 33 C25.33333333 33 21.66666667 33 18 33 C17.23945312 33.04640625 16.47890625 33.0928125 15.6953125 33.140625 C11.55199626 33.31693633 8.77832979 33.41400521 5.0625 31.4375 C-0.43488016 24.94059617 -0.39465255 18.72643501 -0.1875 10.5625 C-0.17396484 9.54478516 -0.16042969 8.52707031 -0.14648438 7.47851562 C-0.1113661 4.98511786 -0.06218559 2.49284488 0 0 Z " fill="#0D0803" transform="translate(519,41)"/>
<path d="M0 0 C4.19752313 1.52637205 7.22229032 3.47444541 10 7 C10 8.32 10 9.64 10 11 C2.23529412 11.38823529 2.23529412 11.38823529 -2 8 C-4.95720628 7.33319632 -4.95720628 7.33319632 -8 8 C-11.63525215 10.60789828 -12.83397068 12.0702358 -13.625 16.5 C-12.83397068 20.9297642 -11.63525215 22.39210172 -8 25 C-4.95720628 25.66680368 -4.95720628 25.66680368 -2 25 C-1.401875 24.505 -0.80375 24.01 -0.1875 23.5 C3.26829583 21.13031143 6.93090046 21.76524426 11 22 C9.56179187 27.03372844 7.09754485 28.98955889 3 32 C-2.74537679 33.9151256 -8.8317698 33.96365787 -14.375 31.5 C-18.94049181 27.15191256 -22.24162952 22.92129665 -22.5625 16.4375 C-22.19404864 10.50133923 -19.7984732 6.62719004 -15.375 2.625 C-10.42536601 -0.76159168 -5.87801118 -0.46558504 0 0 Z " fill="#060401" transform="translate(345,41)"/>
<path d="M0 0 C3.34085007 1.7912643 5.94647299 3.90285149 7.7734375 7.234375 C7.7734375 8.224375 7.7734375 9.214375 7.7734375 10.234375 C-0.99060744 10.73999298 -0.99060744 10.73999298 -5.2265625 7.234375 C-8.18376878 6.56757132 -8.18376878 6.56757132 -11.2265625 7.234375 C-14.86181465 9.84227328 -16.06053318 11.3046108 -16.8515625 15.734375 C-16.05540011 20.19288436 -14.91842792 21.64221417 -11.2265625 24.234375 C-7.68406199 24.90114378 -7.68406199 24.90114378 -4.2265625 24.234375 C-3.5871875 23.739375 -2.9478125 23.244375 -2.2890625 22.734375 C0.94281713 20.38391709 3.84777898 21.03809207 7.7734375 21.234375 C7.7734375 24.05063091 7.17890883 25.76002909 5.34765625 27.90234375 C0.36031493 32.24948805 -3.91786853 33.04533072 -10.453125 32.69140625 C-15.57396596 31.84754936 -18.162838 29.41309674 -21.5390625 25.671875 C-25.03293583 20.62516907 -24.82982974 15.16508674 -24.2265625 9.234375 C-19.59179258 -0.56994599 -10.05935803 -3.45900732 0 0 Z " fill="#060301" transform="translate(488.2265625,41.765625)"/>
<path d="M0 0 C2.64 0 5.28 0 8 0 C8 3.63 8 7.26 8 11 C9.32 11 10.64 11 12 11 C12 12.98 12 14.96 12 17 C10.68 17 9.36 17 8 17 C8 25.58 8 34.16 8 43 C5.36 43 2.72 43 0 43 C0 34.75 0 26.5 0 18 C-0.99 18 -1.98 18 -3 18 C-3 15.36 -3 12.72 -3 10 C-2.01 10 -1.02 10 0 10 C0 6.7 0 3.4 0 0 Z " fill="#0D0802" transform="translate(503,31)"/>
<path d="M0 0 C2.31 0 4.62 0 7 0 C7 3.63 7 7.26 7 11 C8.32 11 9.64 11 11 11 C11 12.98 11 14.96 11 17 C9.68 17 8.36 17 7 17 C7 25.25 7 33.5 7 42 C4.69 42 2.38 42 0 42 C0 33.75 0 25.5 0 17 C-1.32 17 -2.64 17 -4 17 C-4 15.02 -4 13.04 -4 11 C-2.68 11 -1.36 11 0 11 C0 7.37 0 3.74 0 0 Z " fill="#000000" transform="translate(412,31)"/>
<path d="M0 0 C5.94 0 11.88 0 18 0 C18 5.94 18 11.88 18 18 C12.06 18 6.12 18 0 18 C0 12.06 0 6.12 0 0 Z " fill="#DB8621" transform="translate(0,0)"/>
<path d="M0 0 C1.32 0 2.64 0 4 0 C4 2.31 4 4.62 4 7 C3.360625 7.28875 2.72125 7.5775 2.0625 7.875 C-0.15206079 8.82823451 -0.15206079 8.82823451 -1 11 C-1.15222973 12.66565749 -1.24917215 14.33656496 -1.31640625 16.0078125 C-1.35830078 16.99394531 -1.40019531 17.98007812 -1.44335938 18.99609375 C-1.48267578 20.02863281 -1.52199219 21.06117187 -1.5625 22.125 C-1.60568359 23.16527344 -1.64886719 24.20554687 -1.69335938 25.27734375 C-1.7996288 27.85142528 -1.90166583 30.42560508 -2 33 C-4.64 33 -7.28 33 -10 33 C-10 22.44 -10 11.88 -10 1 C-7.03 1 -4.06 1 -1 1 C-0.67 0.67 -0.34 0.34 0 0 Z " fill="#070501" transform="translate(564,41)"/>
<path d="M0 0 C0.3125 3.3125 0.3125 3.3125 0 7 C-0.81686279 7.46124268 -1.63372559 7.92248535 -2.4753418 8.39770508 C-5.22785653 9.74549254 -5.22785653 9.74549254 -5.65942383 12.4519043 C-5.67513428 13.39976807 -5.69084473 14.34763184 -5.70703125 15.32421875 C-5.73603516 16.35224609 -5.76503906 17.38027344 -5.79492188 18.43945312 C-5.80072266 19.51130859 -5.80652344 20.58316406 -5.8125 21.6875 C-5.83763672 22.77095703 -5.86277344 23.85441406 -5.88867188 24.97070312 C-5.94763215 27.64749983 -5.98384663 30.32265815 -6 33 C-8.64 33 -11.28 33 -14 33 C-14 22.44 -14 11.88 -14 1 C-11.36 1 -8.72 1 -6 1 C-4 0 -4 0 0 0 Z " fill="#090502" transform="translate(320,41)"/>
<path d="M0 0 C5.54361702 3.28510638 5.54361702 3.28510638 6.515625 6.9375 C6.71870236 10.76695879 6.22165721 12.65273704 4.125 15.9375 C1.4189966 18.56391506 0.46835168 18.93814223 -3.3125 19.4375 C-7 19 -7 19 -9.9375 16.4375 C-12.41268665 12.96240352 -12.69438972 10.24349271 -12 6 C-8.62794354 0.82951342 -6.18928406 -0.71414816 0 0 Z " fill="#D57F18" transform="translate(286,48)"/>
<path d="M0 0 C2.64 0 5.28 0 8 0 C8 10.89 8 21.78 8 33 C5.36 33 2.72 33 0 33 C0 22.11 0 11.22 0 0 Z " fill="#0E0903" transform="translate(396,41)"/>
<path d="M0 0 C2.875 1.3125 2.875 1.3125 5 3 C5 3.99 5 4.98 5 6 C-0.28 6 -5.56 6 -11 6 C-8.20641535 0.4128307 -6.04904944 -0.60490494 0 0 Z " fill="#CE7A17" transform="translate(591,48)"/>
<path d="M0 0 C2.875 1.875 2.875 1.875 5 4 C5 4.66 5 5.32 5 6 C-0.28 6 -5.56 6 -11 6 C-8.23723556 0.47447111 -6.0251598 -0.72301918 0 0 Z " fill="#D27D17" transform="translate(446,48)"/>
<path d="M0 0 C2.64 0 5.28 0 8 0 C8 2.31 8 4.62 8 7 C5.36 7 2.72 7 0 7 C0 4.69 0 2.38 0 0 Z " fill="#0E0903" transform="translate(396,31)"/>
</svg>
