<?xml version="1.0" encoding="UTF-8"?>
<svg version="1.1" xmlns="http://www.w3.org/2000/svg" width="512" height="512">
<path d="M0 0 C18.81 0 37.62 0 57 0 C57 49.83 57 99.66 57 151 C73.5 151 90 151 107 151 C107 101.17 107 51.34 107 0 C126.8 0 146.6 0 167 0 C167 49.83 167 99.66 167 151 C182.51 151 198.02 151 214 151 C214 113.71 214 76.42 214 38 C218.49956693 39.12489173 218.49956693 39.12489173 220.65600586 42.47021484 C221.14377502 43.21384781 221.63154419 43.95748077 222.13409424 44.72364807 C222.91656525 45.95485634 222.91656525 45.95485634 223.71484375 47.2109375 C224.27443787 48.0698912 224.83403198 48.92884491 225.4105835 49.81382751 C226.62555089 51.68118066 227.8352684 53.55195754 229.04037476 55.4256897 C232.2695706 60.44586461 235.53636325 65.44153896 238.796875 70.44140625 C239.46953903 71.47539047 240.14220306 72.50937469 240.83525085 73.57469177 C247.99737368 84.56979808 255.33023259 95.44739195 262.6875 106.3125 C264.46217811 108.93517554 266.23668421 111.55796708 268.01087952 114.18096924 C269.12089624 115.82121014 270.2318218 117.46083642 271.34373474 119.09979248 C273.88047191 122.84299324 276.3994779 126.59539202 278.87353516 130.38037109 C279.54700737 131.40676949 279.54700737 131.40676949 280.23408508 132.4539032 C281.05571513 133.70929243 281.87259762 134.96781012 282.68327332 136.2303009 C287.49779685 143.57738956 292.42033516 147.85508379 301 150 C313.87 150 326.74 150 340 150 C340 100.5 340 51 340 0 C360.13 0 380.26 0 401 0 C401 49.83 401 99.66 401 151 C417.17 151 433.34 151 450 151 C450 101.17 450 51.34 450 0 C469.14 0 488.28 0 508 0 C510.2512618 13.50757079 510.2512618 13.50757079 510.29052734 18.09033203 C510.3096669 19.64483566 510.3096669 19.64483566 510.32919312 21.23074341 C510.33253159 22.85289261 510.33253159 22.85289261 510.3359375 24.5078125 C510.3425943 25.67214813 510.3492511 26.83648376 510.35610962 28.03610229 C510.36617566 30.491663 510.37092853 32.94725072 510.37060547 35.40283203 C510.37493178 39.06722166 510.41118918 42.73035764 510.44921875 46.39453125 C510.68135805 95.30465479 495.53993463 142.60110039 468 183 C467.56445801 183.64501465 467.12891602 184.2900293 466.68017578 184.95458984 C453.80969921 203.90155439 437.98317535 222.22992557 420.08203125 236.53125 C417.92713179 238.25735451 415.80619312 239.99922579 413.69921875 241.78125 C381.92176088 268.36350726 342.39461284 285.02473929 302 293 C300.7256031 293.26052155 300.7256031 293.26052155 299.42546082 293.52630615 C290.94877429 295.11422539 282.58554408 295.34449952 273.9921875 295.37109375 C272.45736628 295.38010089 270.92254573 295.38922315 269.38772583 295.39845276 C266.17887266 295.41484508 262.97012244 295.42262302 259.76123047 295.42553711 C256.52847002 295.42981218 253.29651893 295.45045225 250.06396484 295.48706055 C230.14182922 295.70841787 211.44388035 294.95841796 192 290 C190.91096375 289.7283754 190.91096375 289.7283754 189.79992676 289.45126343 C185.96463259 288.4765955 182.19788269 287.35500209 178.4375 286.125 C176.8299585 285.61356445 176.8299585 285.61356445 175.18994141 285.09179688 C160.49795518 280.33064817 146.6435142 274.20878328 133 267 C132.34676758 266.65743164 131.69353516 266.31486328 131.02050781 265.96191406 C113.26186212 256.57057507 97.16021427 244.67675949 82.3515625 231.12890625 C80.35540537 229.32175403 78.31923635 227.59642854 76.25 225.875 C46.68869686 199.94194533 26.15044196 164.17958978 12 128 C11.69723145 127.25218262 11.39446289 126.50436523 11.08251953 125.73388672 C5.53885242 112.01682237 2.62924276 97.52096125 0 83 C-0.20012695 81.939021 -0.40025391 80.87804199 -0.60644531 79.78491211 C-2.55057395 67.79640659 -2.30164507 55.71456667 -2.26074219 43.60180664 C-2.24999447 39.81054805 -2.26069958 36.0197601 -2.2734375 32.22851562 C-2.27211622 29.78385314 -2.26955447 27.33919094 -2.265625 24.89453125 C-2.26967346 23.77859085 -2.27372192 22.66265045 -2.27789307 21.51289368 C-2.27158875 20.44105331 -2.26528442 19.36921295 -2.25878906 18.26489258 C-2.25719788 17.34194901 -2.25560669 16.41900543 -2.25396729 15.46809387 C-1.87342437 10.2715247 -0.8565983 5.13958981 0 0 Z " fill="#15803D" transform="translate(2,217)"/>
<path d="M0 0 C3.43982242 0.00849459 6.87796746 -0.02036444 10.31762695 -0.05200195 C71.38893191 -0.24297305 130.53246892 24.25025612 175.42114258 65.31713867 C177.41729971 67.12429089 179.45346873 68.84961638 181.52270508 70.57104492 C211.66702581 97.01555969 238.08031063 137.81545854 248.77270508 176.44604492 C248.77270508 178.09604492 248.77270508 179.74604492 248.77270508 181.44604492 C181.12270508 181.44604492 113.47270508 181.44604492 43.77270508 181.44604492 C43.77270508 212.46604492 43.77270508 243.48604492 43.77270508 275.44604492 C38.77270508 274.44604492 38.77270508 274.44604492 37.09692383 272.38354492 C36.55680664 271.41416992 36.01668945 270.44479492 35.46020508 269.44604492 C34.77623227 268.26170923 34.08835899 267.07962196 33.39770508 265.89916992 C32.9980957 265.21145508 32.59848633 264.52374023 32.18676758 263.81518555 C29.23304829 258.86648182 26.07776384 254.04247462 22.96020508 249.19604492 C22.25871338 248.10187256 21.55722168 247.0077002 20.83447266 245.88037109 C16.53025392 239.16866567 12.20759686 232.46916015 7.86425781 225.78271484 C5.29797992 221.82530749 2.75743731 217.85257499 0.23364258 213.86791992 C-0.38172363 212.89685303 -0.99708984 211.92578613 -1.63110352 210.92529297 C-2.8210692 209.04529825 -4.0090485 207.16404403 -5.19458008 205.28125 C-6.30429744 203.52794837 -7.42385824 201.78083591 -8.5534668 200.0402832 C-9.68210874 198.29101989 -10.78200479 196.5229158 -11.85424805 194.73852539 C-12.40532227 193.86728027 -12.95639648 192.99603516 -13.52416992 192.09838867 C-13.99693359 191.32358154 -14.46969727 190.54877441 -14.95678711 189.75048828 C-21.97114894 182.63128814 -29.77366344 181.89638057 -39.2934494 181.771321 C-42.22881339 181.76004831 -45.16353001 181.77314028 -48.09887695 181.78662109 C-50.2185612 181.77816074 -52.33823768 181.76751337 -54.457901 181.75485229 C-60.19070607 181.72677092 -65.92313612 181.7291662 -71.65598917 181.73714614 C-77.6551452 181.74027641 -83.6541829 181.71522153 -89.65328979 181.69319153 C-101.00379569 181.65577453 -112.35418178 181.6436049 -123.70474327 181.64056712 C-136.63102631 181.63587378 -149.55718952 181.6029415 -162.48341966 181.56766927 C-189.06469691 181.49576705 -215.64592826 181.45922312 -242.22729492 181.44604492 C-233.60297077 145.7390015 -212.34265091 111.58846432 -187.50854492 84.91479492 C-185.61498884 82.8656041 -183.82131632 80.77864212 -182.03979492 78.63354492 C-137.56995539 27.84048811 -66.52031502 -0.24906935 0 0 Z " fill="#15803D" transform="translate(252.227294921875,0.553955078125)"/>
</svg>
